<svg xmlns="http://www.w3.org/2000/svg" viewBox="0 0 64 64" width="64" height="64">
<!-- Same speech bubble as the in-app Logo component (src/components/Logo.tsx), plus a tricolour badge. -->
  <g transform="translate(-4 1)">
    <path d="M22 6h22a16 16 0 0 1 16 16v4a16 16 0 0 1-16 16H24l-12 14V22A16 16 0 0 1 22 6Z"
          fill="#0055A4" stroke="#0A2540" stroke-width="4" stroke-linejoin="round" stroke-linecap="round"/>
    <g fill="none" stroke-linecap="round" stroke-linejoin="round">
      <path d="M27 38V14h7.5a7 7 0 0 1 0 14H27" stroke="#0A2540" stroke-width="9"/>
      <path d="M27 38V14h7.5a7 7 0 0 1 0 14H27" stroke="#ffffff" stroke-width="5"/>
    </g>
    <!-- Flag badge, bottom-right corner of the bubble -->
    <g transform="translate(43 38)">
      <rect x="0" y="0" width="21" height="14" rx="3" fill="#0A2540"/>
      <clipPath id="f"><rect x="1.5" y="1.5" width="18" height="11" rx="2"/></clipPath>
      <g clip-path="url(#f)">
        <rect x="1.5" y="1.5" width="6" height="11" fill="#0055A4"/>
        <rect x="7.5" y="1.5" width="6" height="11" fill="#ffffff"/>
        <rect x="13.5" y="1.5" width="6" height="11" fill="#EF4135"/>
      </g>
    </g>
  </g>
</svg>
